<svg width="7" height="12" viewBox="0 0 7 12" fill="none" xmlns="http://www.w3.org/2000/svg">
<path fill-rule="evenodd" clip-rule="evenodd" d="M5.41076 2.77839H6.55595V1.03831C6.37748 1.03831 6.18413 0.993688 5.99823 0.986252C5.65616 0.986252 5.31409 0.94907 4.97202 0.986252C4.44121 0.979475 3.92145 1.138 3.48477 1.43986C3.24657 1.6159 3.04662 1.8385 2.89705 2.09416C2.74749 2.34982 2.65144 2.63321 2.61473 2.92712C2.57645 3.17317 2.55657 3.42173 2.55524 3.67074C2.55524 4.06486 2.55524 4.41437 2.55524 4.84567V4.9944H0.88208V6.93526H2.53293V11.8134H4.55559V6.87577H6.20644C6.28824 6.22882 6.37004 5.5893 6.45928 4.92003H4.54072C4.54072 4.92003 4.54072 3.96076 4.54072 3.54433C4.5779 2.94942 4.91253 2.79326 5.41076 2.77839Z" fill="#9B9B9B"/>
</svg>
