<svg width="11" height="11" viewBox="0 0 11 11" fill="none" xmlns="http://www.w3.org/2000/svg">
<path d="M10.3856 2.78191C10.3344 2.15138 10.054 1.56146 9.59738 1.12362C9.11431 0.664491 8.47884 0.399711 7.81268 0.379998C6.20893 0.298119 4.60146 0.325448 3.00142 0.461797C2.4977 0.520704 2.02447 0.733772 1.64645 1.07186C1.26843 1.40995 1.00407 1.85656 0.889524 2.35061C0.688836 4.16623 0.673885 5.9976 0.844905 7.81626C0.904004 8.33206 1.12517 8.81583 1.47659 9.19798C1.82802 9.58014 2.29159 9.84099 2.80064 9.94303C4.59135 10.1106 6.39379 10.1106 8.1845 9.94303C8.6996 9.8863 9.18352 9.66797 9.5669 9.31931C9.95029 8.97066 10.2135 8.50958 10.3187 8.00216C10.4916 6.26727 10.514 4.52067 10.3856 2.78191ZM9.49327 7.65266C9.45474 8.0454 9.2768 8.41134 8.99168 8.68418C8.70657 8.95701 8.33315 9.11869 7.9391 9.13991C6.26716 9.26299 4.58769 9.24059 2.91962 9.07299C2.60087 8.9957 2.31359 8.82225 2.09676 8.57615C1.87993 8.33006 1.74404 8.02323 1.70751 7.69728C1.58466 6.06112 1.58466 4.41806 1.70751 2.78191C1.7456 2.39157 1.92142 2.02753 2.20348 1.75502C2.48553 1.4825 2.8554 1.3193 3.24682 1.29466C4.84367 1.18304 6.44636 1.18304 8.04321 1.29466C8.43594 1.33319 8.80189 1.51114 9.07472 1.79625C9.34756 2.08137 9.50924 2.45478 9.53046 2.84884C9.62682 4.44911 9.61439 6.05407 9.49327 7.65266ZM5.59668 2.69267C5.1025 2.69267 4.61943 2.83921 4.20854 3.11376C3.79765 3.38831 3.4774 3.77854 3.28829 4.23509C3.09917 4.69165 3.04969 5.19403 3.1461 5.67871C3.24251 6.16339 3.48048 6.60859 3.82991 6.95802C4.17934 7.30746 4.62455 7.54542 5.10923 7.64183C5.5939 7.73824 6.09629 7.68876 6.55284 7.49965C7.0094 7.31054 7.39962 6.99029 7.67417 6.5794C7.94872 6.16851 8.09526 5.68543 8.09526 5.19126C8.09526 4.52859 7.83202 3.89307 7.36344 3.42449C6.89486 2.95592 6.25934 2.69267 5.59668 2.69267ZM5.59668 6.79749C5.27754 6.79454 4.96645 6.69702 4.70274 6.51726C4.43903 6.3375 4.23455 6.08359 4.11514 5.78762C3.99574 5.49165 3.96678 5.16692 4.03192 4.85449C4.09707 4.54206 4.2534 4.25597 4.48115 4.03239C4.70889 3.80881 4.99781 3.65778 5.31139 3.5984C5.62496 3.53902 5.9491 3.57396 6.24282 3.6988C6.53654 3.82364 6.78665 4.03277 6.96151 4.29975C7.13638 4.56672 7.22815 4.87956 7.22522 5.19869C7.22625 5.41376 7.18427 5.62685 7.10176 5.82546C7.01926 6.02407 6.89788 6.20418 6.74478 6.35521C6.59167 6.50624 6.40992 6.62514 6.2102 6.70493C6.01048 6.78471 5.79683 6.82377 5.58181 6.8198L5.59668 6.79749ZM8.79427 2.596C8.79427 2.75181 8.73237 2.90123 8.6222 3.0114C8.51203 3.12157 8.36261 3.18347 8.2068 3.18347C8.051 3.18347 7.90157 3.12157 7.7914 3.0114C7.68123 2.90123 7.61934 2.75181 7.61934 2.596C7.61934 2.4402 7.68123 2.29077 7.7914 2.1806C7.90157 2.07043 8.051 2.00854 8.2068 2.00854C8.28461 2.01045 8.36125 2.0278 8.43229 2.05959C8.50333 2.09137 8.56734 2.13695 8.62061 2.19369C8.67389 2.25042 8.71536 2.31717 8.74261 2.39007C8.76987 2.46296 8.78237 2.54054 8.77939 2.61831L8.79427 2.596Z" fill="#9B9B9B"/>
</svg>
